<svg width="39" height="39" viewBox="0 0 39 39" fill="none" xmlns="http://www.w3.org/2000/svg">
<path d="M38.9998 3.88983H35.0845V35.0847H38.9998V3.88983Z" fill="#000001"/>
<path d="M35.0844 35.0847H27.2793V39.0001H35.0844V35.0847Z" fill="#000001"/>
<path d="M27.2798 19.5H23.39V23.3898H19.5002V27.3051H23.39V35.0846H27.2798V19.5Z" fill="#000001"/>
<path d="M19.5003 27.3051H15.585V31.1948H19.5003V27.3051Z" fill="#000001"/>
<path d="M15.5848 31.1949H11.6951V35.0847H15.5848V31.1949Z" fill="#000001"/>
<path d="M15.5848 15.5846H19.5001V11.6949H3.88989V15.5846H11.695V19.5H15.5848V15.5846Z" fill="#000001"/>
<path d="M11.6949 19.5H7.77954V23.3898H11.6949V19.5Z" fill="#000001"/>
<path d="M35.0848 0H3.88989V3.88976H35.0848V0Z" fill="#000001"/>
<path d="M11.695 35.0847H3.88989V39.0001H11.695V35.0847Z" fill="#000001"/>
<path d="M7.77965 23.3898H3.88989V27.3051H7.77965V23.3898Z" fill="#000001"/>
<path d="M3.88977 27.3051H0V35.0846H3.88977V27.3051Z" fill="#000001"/>
<path d="M3.88977 3.88983H0V11.695H3.88977V3.88983Z" fill="#000001"/>
</svg>
