<svg width="33" height="32" viewBox="0 0 33 32" fill="none" xmlns="http://www.w3.org/2000/svg">
<path d="M24.4701 13.7199V15.2399H27.5201V19.8099H29.0401V9.13989H27.5201V13.7199H24.4701Z" fill="#000001"/>
<path d="M25.9901 22.8599H10.7601V21.3399H9.23008V22.8599H7.71008V27.4299H29.0401V22.8599H27.5201V19.8099H25.9901V22.8599ZM25.9901 25.9099H22.9501V24.3799H25.9901V25.9099Z" fill="#000001"/>
<path d="M27.5201 7.62H25.9901V9.14H27.5201V7.62Z" fill="#000001"/>
<path d="M22.9501 13.72H24.4701V7.61998H25.9901V6.09998H22.9501V13.72Z" fill="#000001"/>
<path d="M22.9501 13.72H19.9001V15.24H22.9501V13.72Z" fill="#000001"/>
<path d="M16.8501 15.24H12.2801V16.76H16.8501V15.24Z" fill="#000001"/>
<path d="M13.8001 9.13995H12.2801V10.6699H15.3301V6.09995H18.3801V10.6699H15.3301V12.1899H16.8501V15.2399H18.3801V13.7199H19.9001V6.09995H22.9501V4.56995H10.7601V6.09995H13.8001V9.13995Z" fill="#000001"/>
<path d="M12.2801 13.72H10.7601V15.24H12.2801V13.72Z" fill="#000001"/>
<path d="M12.2801 9.13998V7.61998H10.7601V6.09998H9.23008V7.61998H7.71008V9.13998H12.2801Z" fill="#000001"/>
<path d="M9.23008 19.8099H7.71008V21.3399H9.23008V19.8099Z" fill="#000001"/>
<path d="M7.71012 16.7599H6.19012V19.8099H7.71012V16.7599Z" fill="#000001"/>
<path d="M7.71012 9.13989H6.19012V10.6699H7.71012V9.13989Z" fill="#000001"/>
<path d="M6.1901 10.6699H4.6601V16.7599H6.1901V10.6699Z" fill="#000001"/>
</svg>
