<svg width="33" height="32" viewBox="0 0 33 32" fill="none" xmlns="http://www.w3.org/2000/svg">
<path d="M29.0401 7.62H27.5101V19.81H29.0401V7.62Z" fill="#000001"/>
<path d="M27.5101 19.8101H25.9901V24.3901H27.5101V19.8101Z" fill="#000001"/>
<path d="M24.4701 27.43H10.7501V25.91H9.23007V27.43H7.70007V32H27.5101V27.43H25.9901V24.39H24.4701V27.43ZM24.4701 30.48H21.4201V28.96H24.4701V30.48Z" fill="#000001"/>
<path d="M22.9401 15.24H24.4701V7.61996H27.5101V6.09996H24.4701V4.57996H22.9401V15.24Z" fill="#000001"/>
<path d="M18.3701 15.24H19.9001V4.58003H22.9401V3.05003H19.9001V1.53003H18.3701V15.24Z" fill="#000001"/>
<path d="M18.3701 16.77H16.8501V19.81H18.3701V16.77Z" fill="#000001"/>
<path d="M18.3701 0H15.3201V1.53H18.3701V0Z" fill="#000001"/>
<path d="M16.8501 15.24H15.3201V16.77H16.8501V15.24Z" fill="#000001"/>
<path d="M16.8501 19.8101H12.2801V21.3401H16.8501V19.8101Z" fill="#000001"/>
<path d="M13.8001 13.72H12.2801V15.24H15.3201V1.53003H10.7501V3.05003H13.8001V13.72Z" fill="#000001"/>
<path d="M12.2801 18.29H10.7501V19.81H12.2801V18.29Z" fill="#000001"/>
<path d="M12.2801 13.72V12.19H10.7501V3.05005H9.23007V12.19H7.70007V13.72H12.2801Z" fill="#000001"/>
<path d="M9.23007 24.39H7.70007V25.91H9.23007V24.39Z" fill="#000001"/>
<path d="M7.70011 21.34H6.18011V24.39H7.70011V21.34Z" fill="#000001"/>
<path d="M7.70011 13.72H6.18011V15.24H7.70011V13.72Z" fill="#000001"/>
<path d="M6.1801 15.24H4.6601V21.34H6.1801V15.24Z" fill="#000001"/>
</svg>
