<svg width="33" height="32" viewBox="0 0 33 32" fill="none" xmlns="http://www.w3.org/2000/svg">
<path d="M25.2301 18.29V19.81H28.2801V24.38H29.8001V13.71H28.2801V18.29H25.2301Z" fill="#000001"/>
<path d="M26.7601 27.43H11.5201V25.91H9.99009V27.43H8.47009V32H29.8001V27.43H28.2801V24.38H26.7601V27.43ZM26.7601 30.48H23.7101V28.95H26.7601V30.48Z" fill="#000001"/>
<path d="M23.7101 18.2899H25.2301V13.7099H28.2801V12.1899H23.7101V18.2899Z" fill="#000001"/>
<path d="M25.2301 1.52002H23.7101V6.10002H25.2301V1.52002Z" fill="#000001"/>
<path d="M23.7101 6.09998H22.1801V9.13998H23.7101V6.09998Z" fill="#000001"/>
<path d="M23.7101 18.29H20.6601V19.81H23.7101V18.29Z" fill="#000001"/>
<path d="M20.6601 12.19H23.7101V10.67H22.1801V9.14001H20.6601V12.19Z" fill="#000001"/>
<path d="M23.7101 0H19.1401V1.52H23.7101V0Z" fill="#000001"/>
<path d="M19.1401 19.8099V18.2899H20.6601V12.1899H19.1401V16.7599H17.6101V19.8099H19.1401Z" fill="#000001"/>
<path d="M19.1401 1.52002H17.6101V6.10002H19.1401V1.52002Z" fill="#000001"/>
<path d="M17.6101 15.24H16.0901V16.76H17.6101V15.24Z" fill="#000001"/>
<path d="M17.6101 6.09998H16.0901V9.13998H17.6101V6.09998Z" fill="#000001"/>
<path d="M17.6101 19.8101H13.0401V21.3301H17.6101V19.8101Z" fill="#000001"/>
<path d="M16.0901 13.71H13.0401V15.24H16.0901V13.71Z" fill="#000001"/>
<path d="M14.5701 10.67V12.19H16.0901V9.14001H13.0401V10.67H14.5701Z" fill="#000001"/>
<path d="M13.0401 18.29H11.5201V19.81H13.0401V18.29Z" fill="#000001"/>
<path d="M13.0401 6.09998H11.5201V9.13998H13.0401V6.09998Z" fill="#000001"/>
<path d="M13.0401 12.1899H8.47009V13.7099H13.0401V12.1899Z" fill="#000001"/>
<path d="M11.5201 1.52002H9.99011V6.10002H11.5201V1.52002Z" fill="#000001"/>
<path d="M9.99009 24.38H8.47009V25.91H9.99009V24.38Z" fill="#000001"/>
<path d="M8.47007 21.33H6.95007V24.38H8.47007V21.33Z" fill="#000001"/>
<path d="M8.47007 13.71H6.95007V15.24H8.47007V13.71Z" fill="#000001"/>
<path d="M8.47007 9.14001H6.95007V12.19H8.47007V9.14001Z" fill="#000001"/>
<path d="M9.99011 0H5.4201V1.52H9.99011V0Z" fill="#000001"/>
<path d="M6.9501 15.24H5.4201V21.33H6.9501V15.24Z" fill="#000001"/>
<path d="M6.9501 6.09998H5.4201V9.13998H6.9501V6.09998Z" fill="#000001"/>
<path d="M5.42009 1.52002H3.90009V6.10002H5.42009V1.52002Z" fill="#000001"/>
</svg>
